<mxfile host="app.diagrams.net" agent="Mozilla/5.0 (Macintosh; Intel Mac OS X 10_15_7) AppleWebKit/537.36 (KHTML, like Gecko) Chrome/129.0.0.0 Safari/537.36" version="24.7.17">
  <diagram name="Page-1" id="cagw17x6ftYsTEXhxTAl">
    <mxGraphModel dx="2284" dy="819" grid="1" gridSize="10" guides="1" tooltips="1" connect="1" arrows="1" fold="1" page="1" pageScale="1" pageWidth="850" pageHeight="1100" math="0" shadow="0">
      <root>
        <mxCell id="0" />
        <mxCell id="1" parent="0" />
        <mxCell id="t4TClTuSQzGhTtpf5ES--4" style="edgeStyle=orthogonalEdgeStyle;rounded=0;orthogonalLoop=1;jettySize=auto;html=1;entryX=1;entryY=0;entryDx=0;entryDy=0;" parent="1" source="t4TClTuSQzGhTtpf5ES--1" target="t4TClTuSQzGhTtpf5ES--2" edge="1">
          <mxGeometry relative="1" as="geometry" />
        </mxCell>
        <mxCell id="t4TClTuSQzGhTtpf5ES--6" value="http" style="edgeLabel;html=1;align=center;verticalAlign=middle;resizable=0;points=[];" parent="t4TClTuSQzGhTtpf5ES--4" vertex="1" connectable="0">
          <mxGeometry x="0.0071" relative="1" as="geometry">
            <mxPoint as="offset" />
          </mxGeometry>
        </mxCell>
        <mxCell id="t4TClTuSQzGhTtpf5ES--1" value="Mobile user" style="html=1;verticalLabelPosition=bottom;align=center;labelBackgroundColor=#ffffff;verticalAlign=top;strokeWidth=2;strokeColor=#0080F0;shadow=0;dashed=0;shape=mxgraph.ios7.icons.smartphone;" parent="1" vertex="1">
          <mxGeometry x="290" y="70" width="18" height="30" as="geometry" />
        </mxCell>
        <mxCell id="t4TClTuSQzGhTtpf5ES--16" style="edgeStyle=orthogonalEdgeStyle;rounded=0;orthogonalLoop=1;jettySize=auto;html=1;entryX=0.5;entryY=0;entryDx=0;entryDy=0;" parent="1" source="t4TClTuSQzGhTtpf5ES--2" target="t4TClTuSQzGhTtpf5ES--14" edge="1">
          <mxGeometry relative="1" as="geometry" />
        </mxCell>
        <mxCell id="t4TClTuSQzGhTtpf5ES--17" value="http" style="edgeLabel;html=1;align=center;verticalAlign=middle;resizable=0;points=[];" parent="t4TClTuSQzGhTtpf5ES--16" vertex="1" connectable="0">
          <mxGeometry x="0.4588" y="2" relative="1" as="geometry">
            <mxPoint as="offset" />
          </mxGeometry>
        </mxCell>
        <mxCell id="t4TClTuSQzGhTtpf5ES--28" style="edgeStyle=orthogonalEdgeStyle;rounded=0;orthogonalLoop=1;jettySize=auto;html=1;entryX=0.75;entryY=0;entryDx=0;entryDy=0;" parent="1" source="t4TClTuSQzGhTtpf5ES--2" target="t4TClTuSQzGhTtpf5ES--9" edge="1">
          <mxGeometry relative="1" as="geometry" />
        </mxCell>
        <mxCell id="t4TClTuSQzGhTtpf5ES--29" value="WS" style="edgeLabel;html=1;align=center;verticalAlign=middle;resizable=0;points=[];" parent="t4TClTuSQzGhTtpf5ES--28" vertex="1" connectable="0">
          <mxGeometry x="0.0235" y="-3" relative="1" as="geometry">
            <mxPoint as="offset" />
          </mxGeometry>
        </mxCell>
        <mxCell id="t4TClTuSQzGhTtpf5ES--33" value="2" style="edgeLabel;html=1;align=center;verticalAlign=middle;resizable=0;points=[];" parent="t4TClTuSQzGhTtpf5ES--28" vertex="1" connectable="0">
          <mxGeometry x="-0.7529" y="-2" relative="1" as="geometry">
            <mxPoint as="offset" />
          </mxGeometry>
        </mxCell>
        <mxCell id="t4TClTuSQzGhTtpf5ES--2" value="LB" style="rounded=1;whiteSpace=wrap;html=1;" parent="1" vertex="1">
          <mxGeometry x="240" y="180" width="120" height="30" as="geometry" />
        </mxCell>
        <mxCell id="t4TClTuSQzGhTtpf5ES--5" style="edgeStyle=orthogonalEdgeStyle;rounded=0;orthogonalLoop=1;jettySize=auto;html=1;entryX=0.075;entryY=0.033;entryDx=0;entryDy=0;entryPerimeter=0;" parent="1" source="t4TClTuSQzGhTtpf5ES--1" target="t4TClTuSQzGhTtpf5ES--2" edge="1">
          <mxGeometry relative="1" as="geometry">
            <Array as="points">
              <mxPoint x="299" y="140" />
              <mxPoint x="250" y="140" />
            </Array>
          </mxGeometry>
        </mxCell>
        <mxCell id="t4TClTuSQzGhTtpf5ES--7" value="Websocket" style="edgeLabel;html=1;align=center;verticalAlign=middle;resizable=0;points=[];" parent="t4TClTuSQzGhTtpf5ES--5" vertex="1" connectable="0">
          <mxGeometry x="0.2367" relative="1" as="geometry">
            <mxPoint as="offset" />
          </mxGeometry>
        </mxCell>
        <mxCell id="t4TClTuSQzGhTtpf5ES--32" value="1" style="edgeLabel;html=1;align=center;verticalAlign=middle;resizable=0;points=[];" parent="t4TClTuSQzGhTtpf5ES--5" vertex="1" connectable="0">
          <mxGeometry x="0.6922" y="1" relative="1" as="geometry">
            <mxPoint as="offset" />
          </mxGeometry>
        </mxCell>
        <mxCell id="t4TClTuSQzGhTtpf5ES--22" style="edgeStyle=orthogonalEdgeStyle;rounded=0;orthogonalLoop=1;jettySize=auto;html=1;exitX=1;exitY=0.5;exitDx=0;exitDy=0;" parent="1" source="t4TClTuSQzGhTtpf5ES--13" target="t4TClTuSQzGhTtpf5ES--21" edge="1">
          <mxGeometry relative="1" as="geometry">
            <Array as="points">
              <mxPoint x="260" y="320" />
              <mxPoint x="390" y="320" />
              <mxPoint x="390" y="520" />
            </Array>
          </mxGeometry>
        </mxCell>
        <mxCell id="t4TClTuSQzGhTtpf5ES--35" value="3" style="edgeLabel;html=1;align=center;verticalAlign=middle;resizable=0;points=[];" parent="t4TClTuSQzGhTtpf5ES--22" vertex="1" connectable="0">
          <mxGeometry x="0.0161" relative="1" as="geometry">
            <mxPoint as="offset" />
          </mxGeometry>
        </mxCell>
        <mxCell id="t4TClTuSQzGhTtpf5ES--9" value="" style="rounded=1;whiteSpace=wrap;html=1;" parent="1" vertex="1">
          <mxGeometry x="130" y="300" width="120" height="30" as="geometry" />
        </mxCell>
        <mxCell id="t4TClTuSQzGhTtpf5ES--10" value="&lt;h1 style=&quot;margin-top: 0px;&quot;&gt;FR/ Use case:&lt;br&gt;&lt;span style=&quot;background-color: initial; font-size: 12px; font-weight: normal;&quot;&gt;- User see nearby friends in a rang of 5 miles&lt;br&gt;&lt;/span&gt;&lt;font style=&quot;font-size: 12px; font-weight: normal;&quot;&gt;- update friend list each 30 sec&lt;/font&gt;&lt;/h1&gt;" style="text;html=1;whiteSpace=wrap;overflow=hidden;rounded=0;" parent="1" vertex="1">
          <mxGeometry x="740" y="30" width="270" height="110" as="geometry" />
        </mxCell>
        <mxCell id="t4TClTuSQzGhTtpf5ES--11" value="&lt;h1 style=&quot;margin-top: 0px;&quot;&gt;NFR:&lt;br&gt;&lt;span style=&quot;background-color: initial; font-size: 12px; font-weight: normal;&quot;&gt;- Low latency&lt;br&gt;&lt;/span&gt;&lt;font style=&quot;font-size: 12px; font-weight: normal;&quot;&gt;- Reliability&lt;br&gt;Eventual Consistency&lt;/font&gt;&lt;/h1&gt;" style="text;html=1;whiteSpace=wrap;overflow=hidden;rounded=0;" parent="1" vertex="1">
          <mxGeometry x="740" y="150" width="270" height="130" as="geometry" />
        </mxCell>
        <mxCell id="t4TClTuSQzGhTtpf5ES--12" value="&lt;h1 style=&quot;margin-top: 0px;&quot;&gt;Size:&lt;br&gt;&lt;span style=&quot;font-size: 12px; font-weight: 400;&quot;&gt;- 100 Million user&lt;br&gt;- 10% active only&lt;br&gt;-each has 400 friend but app display paging of 20/page&lt;br&gt;&lt;br&gt;QPS = 100 million * 10% / 30 = 334 K QPS&lt;/span&gt;&lt;/h1&gt;" style="text;html=1;whiteSpace=wrap;overflow=hidden;rounded=0;" parent="1" vertex="1">
          <mxGeometry x="730" y="290" width="270" height="240" as="geometry" />
        </mxCell>
        <mxCell id="t4TClTuSQzGhTtpf5ES--13" value="WS servers" style="rounded=1;whiteSpace=wrap;html=1;" parent="1" vertex="1">
          <mxGeometry x="140" y="310" width="120" height="30" as="geometry" />
        </mxCell>
        <mxCell id="t4TClTuSQzGhTtpf5ES--14" value="" style="rounded=1;whiteSpace=wrap;html=1;" parent="1" vertex="1">
          <mxGeometry x="450" y="300" width="120" height="30" as="geometry" />
        </mxCell>
        <mxCell id="t4TClTuSQzGhTtpf5ES--15" value="API Server" style="rounded=1;whiteSpace=wrap;html=1;" parent="1" vertex="1">
          <mxGeometry x="460" y="310" width="120" height="30" as="geometry" />
        </mxCell>
        <mxCell id="t4TClTuSQzGhTtpf5ES--18" value="User DB&lt;br&gt;SQL/Non-SQL" style="shape=cylinder3;whiteSpace=wrap;html=1;boundedLbl=1;backgroundOutline=1;size=15;" parent="1" vertex="1">
          <mxGeometry x="660" y="450" width="60" height="80" as="geometry" />
        </mxCell>
        <mxCell id="t4TClTuSQzGhTtpf5ES--19" style="edgeStyle=orthogonalEdgeStyle;rounded=0;orthogonalLoop=1;jettySize=auto;html=1;entryX=0.5;entryY=0;entryDx=0;entryDy=0;entryPerimeter=0;" parent="1" source="t4TClTuSQzGhTtpf5ES--15" target="t4TClTuSQzGhTtpf5ES--18" edge="1">
          <mxGeometry relative="1" as="geometry" />
        </mxCell>
        <mxCell id="t4TClTuSQzGhTtpf5ES--20" value="user management, auth, add friends, .." style="text;html=1;align=center;verticalAlign=middle;whiteSpace=wrap;rounded=0;" parent="1" vertex="1">
          <mxGeometry x="610" y="280" width="60" height="30" as="geometry" />
        </mxCell>
        <mxCell id="t4TClTuSQzGhTtpf5ES--21" value="Location History DB" style="shape=cylinder3;whiteSpace=wrap;html=1;boundedLbl=1;backgroundOutline=1;size=15;" parent="1" vertex="1">
          <mxGeometry x="490" y="470" width="60" height="80" as="geometry" />
        </mxCell>
        <mxCell id="t4TClTuSQzGhTtpf5ES--23" value="Location Cache" style="shape=parallelogram;perimeter=parallelogramPerimeter;whiteSpace=wrap;html=1;fixedSize=1;" parent="1" vertex="1">
          <mxGeometry x="220" y="400" width="100" height="40" as="geometry" />
        </mxCell>
        <mxCell id="t4TClTuSQzGhTtpf5ES--24" style="edgeStyle=orthogonalEdgeStyle;rounded=0;orthogonalLoop=1;jettySize=auto;html=1;entryX=0.68;entryY=0;entryDx=0;entryDy=0;entryPerimeter=0;" parent="1" source="t4TClTuSQzGhTtpf5ES--13" target="t4TClTuSQzGhTtpf5ES--23" edge="1">
          <mxGeometry relative="1" as="geometry" />
        </mxCell>
        <mxCell id="t4TClTuSQzGhTtpf5ES--36" value="4" style="edgeLabel;html=1;align=center;verticalAlign=middle;resizable=0;points=[];" parent="t4TClTuSQzGhTtpf5ES--24" vertex="1" connectable="0">
          <mxGeometry x="-0.0541" y="1" relative="1" as="geometry">
            <mxPoint as="offset" />
          </mxGeometry>
        </mxCell>
        <mxCell id="t4TClTuSQzGhTtpf5ES--31" style="edgeStyle=orthogonalEdgeStyle;rounded=0;orthogonalLoop=1;jettySize=auto;html=1;entryX=0.375;entryY=0.967;entryDx=0;entryDy=0;entryPerimeter=0;" parent="1" source="t4TClTuSQzGhTtpf5ES--25" target="t4TClTuSQzGhTtpf5ES--13" edge="1">
          <mxGeometry relative="1" as="geometry">
            <mxPoint x="180" y="350" as="targetPoint" />
          </mxGeometry>
        </mxCell>
        <mxCell id="t4TClTuSQzGhTtpf5ES--37" value="6" style="edgeLabel;html=1;align=center;verticalAlign=middle;resizable=0;points=[];" parent="t4TClTuSQzGhTtpf5ES--31" vertex="1" connectable="0">
          <mxGeometry x="0.1747" relative="1" as="geometry">
            <mxPoint as="offset" />
          </mxGeometry>
        </mxCell>
        <mxCell id="t4TClTuSQzGhTtpf5ES--25" value="" style="shape=cylinder3;whiteSpace=wrap;html=1;boundedLbl=1;backgroundOutline=1;size=15;rotation=90;" parent="1" vertex="1">
          <mxGeometry x="80" y="360" width="60" height="120" as="geometry" />
        </mxCell>
        <mxCell id="t4TClTuSQzGhTtpf5ES--26" value="&lt;b&gt;Redis Pub/Sub&lt;/b&gt;" style="edgeLabel;html=1;align=center;verticalAlign=middle;resizable=0;points=[];" parent="1" vertex="1" connectable="0">
          <mxGeometry x="100" y="420" as="geometry">
            <mxPoint x="-7" y="-2" as="offset" />
          </mxGeometry>
        </mxCell>
        <mxCell id="t4TClTuSQzGhTtpf5ES--27" value="Multiple servers each maintain set of user connection" style="text;html=1;align=center;verticalAlign=middle;whiteSpace=wrap;rounded=0;" parent="1" vertex="1">
          <mxGeometry x="60" y="260" width="120" height="30" as="geometry" />
        </mxCell>
        <mxCell id="t4TClTuSQzGhTtpf5ES--30" style="edgeStyle=orthogonalEdgeStyle;rounded=0;orthogonalLoop=1;jettySize=auto;html=1;entryX=0.5;entryY=1;entryDx=0;entryDy=0;entryPerimeter=0;" parent="1" source="t4TClTuSQzGhTtpf5ES--13" target="t4TClTuSQzGhTtpf5ES--25" edge="1">
          <mxGeometry relative="1" as="geometry">
            <Array as="points">
              <mxPoint x="30" y="325" />
              <mxPoint x="30" y="420" />
            </Array>
          </mxGeometry>
        </mxCell>
        <mxCell id="t4TClTuSQzGhTtpf5ES--38" value="5" style="edgeLabel;html=1;align=center;verticalAlign=middle;resizable=0;points=[];" parent="t4TClTuSQzGhTtpf5ES--30" vertex="1" connectable="0">
          <mxGeometry x="-0.44" y="2" relative="1" as="geometry">
            <mxPoint as="offset" />
          </mxGeometry>
        </mxCell>
        <mxCell id="t4TClTuSQzGhTtpf5ES--34" style="edgeStyle=orthogonalEdgeStyle;rounded=0;orthogonalLoop=1;jettySize=auto;html=1;entryX=0.145;entryY=0;entryDx=0;entryDy=4.35;entryPerimeter=0;" parent="1" source="t4TClTuSQzGhTtpf5ES--13" target="t4TClTuSQzGhTtpf5ES--18" edge="1">
          <mxGeometry relative="1" as="geometry">
            <Array as="points">
              <mxPoint x="420" y="320" />
              <mxPoint x="420" y="430" />
              <mxPoint x="660" y="430" />
              <mxPoint x="660" y="454" />
            </Array>
          </mxGeometry>
        </mxCell>
        <mxCell id="t4TClTuSQzGhTtpf5ES--39" style="edgeStyle=orthogonalEdgeStyle;rounded=0;orthogonalLoop=1;jettySize=auto;html=1;entryX=0;entryY=0.733;entryDx=0;entryDy=0;entryPerimeter=0;" parent="1" source="t4TClTuSQzGhTtpf5ES--13" target="t4TClTuSQzGhTtpf5ES--1" edge="1">
          <mxGeometry relative="1" as="geometry">
            <Array as="points">
              <mxPoint x="180" y="90" />
              <mxPoint x="270" y="90" />
              <mxPoint x="270" y="92" />
            </Array>
          </mxGeometry>
        </mxCell>
        <mxCell id="t4TClTuSQzGhTtpf5ES--40" value="7" style="edgeLabel;html=1;align=center;verticalAlign=middle;resizable=0;points=[];" parent="t4TClTuSQzGhTtpf5ES--39" vertex="1" connectable="0">
          <mxGeometry x="-0.2289" y="-2" relative="1" as="geometry">
            <mxPoint as="offset" />
          </mxGeometry>
        </mxCell>
        <mxCell id="t4TClTuSQzGhTtpf5ES--41" value="-&amp;nbsp; Redis message bus. Pub/Sub are very cheap and lightweight&lt;br&gt;&lt;br&gt;- One server can hold &lt;b&gt;Millions &lt;/b&gt;of channels/topic&lt;br&gt;&lt;br&gt;Sent messages are immediately sent to all subscribers&lt;br&gt;&lt;br&gt;if no subscriber message is just dropped" style="text;html=1;align=center;verticalAlign=middle;whiteSpace=wrap;rounded=0;" parent="1" vertex="1">
          <mxGeometry x="-170" y="300" width="180" height="185" as="geometry" />
        </mxCell>
        <mxCell id="t4TClTuSQzGhTtpf5ES--42" value="" style="whiteSpace=wrap;html=1;aspect=fixed;" parent="1" vertex="1">
          <mxGeometry x="-160" y="631.25" width="190" height="190" as="geometry" />
        </mxCell>
        <mxCell id="t4TClTuSQzGhTtpf5ES--44" value="" style="whiteSpace=wrap;html=1;aspect=fixed;" parent="1" vertex="1">
          <mxGeometry x="60" y="631.25" width="190" height="190" as="geometry" />
        </mxCell>
        <mxCell id="t4TClTuSQzGhTtpf5ES--45" value="" style="whiteSpace=wrap;html=1;aspect=fixed;" parent="1" vertex="1">
          <mxGeometry x="280" y="631.25" width="190" height="190" as="geometry" />
        </mxCell>
        <mxCell id="t4TClTuSQzGhTtpf5ES--46" value="WS Subscriber 1" style="rounded=0;whiteSpace=wrap;html=1;" parent="1" vertex="1">
          <mxGeometry x="310" y="658.75" width="100" height="40" as="geometry" />
        </mxCell>
        <mxCell id="t4TClTuSQzGhTtpf5ES--47" value="WS Subscriber 2" style="rounded=0;whiteSpace=wrap;html=1;" parent="1" vertex="1">
          <mxGeometry x="310" y="706.25" width="100" height="40" as="geometry" />
        </mxCell>
        <mxCell id="t4TClTuSQzGhTtpf5ES--48" value="WS Subscriber 3" style="rounded=0;whiteSpace=wrap;html=1;" parent="1" vertex="1">
          <mxGeometry x="310" y="766.25" width="100" height="40" as="geometry" />
        </mxCell>
        <mxCell id="t4TClTuSQzGhTtpf5ES--58" style="edgeStyle=orthogonalEdgeStyle;rounded=0;orthogonalLoop=1;jettySize=auto;html=1;entryX=0;entryY=0.5;entryDx=0;entryDy=0;" parent="1" source="t4TClTuSQzGhTtpf5ES--49" target="t4TClTuSQzGhTtpf5ES--46" edge="1">
          <mxGeometry relative="1" as="geometry" />
        </mxCell>
        <mxCell id="t4TClTuSQzGhTtpf5ES--49" value="" style="shape=cylinder3;whiteSpace=wrap;html=1;boundedLbl=1;backgroundOutline=1;size=15;rotation=90;" parent="1" vertex="1">
          <mxGeometry x="136.25" y="620" width="35" height="117.5" as="geometry" />
        </mxCell>
        <mxCell id="t4TClTuSQzGhTtpf5ES--51" value="User1 Channel" style="text;html=1;align=center;verticalAlign=middle;whiteSpace=wrap;rounded=0;" parent="1" vertex="1">
          <mxGeometry x="100" y="663.75" width="83" height="30" as="geometry" />
        </mxCell>
        <mxCell id="t4TClTuSQzGhTtpf5ES--61" style="edgeStyle=orthogonalEdgeStyle;rounded=0;orthogonalLoop=1;jettySize=auto;html=1;exitX=0.5;exitY=0;exitDx=0;exitDy=0;exitPerimeter=0;entryX=0;entryY=0.5;entryDx=0;entryDy=0;" parent="1" source="t4TClTuSQzGhTtpf5ES--52" target="t4TClTuSQzGhTtpf5ES--47" edge="1">
          <mxGeometry relative="1" as="geometry" />
        </mxCell>
        <mxCell id="t4TClTuSQzGhTtpf5ES--62" style="edgeStyle=orthogonalEdgeStyle;rounded=0;orthogonalLoop=1;jettySize=auto;html=1;entryX=0;entryY=0.5;entryDx=0;entryDy=0;" parent="1" source="t4TClTuSQzGhTtpf5ES--52" target="t4TClTuSQzGhTtpf5ES--48" edge="1">
          <mxGeometry relative="1" as="geometry" />
        </mxCell>
        <mxCell id="t4TClTuSQzGhTtpf5ES--52" value="" style="shape=cylinder3;whiteSpace=wrap;html=1;boundedLbl=1;backgroundOutline=1;size=15;rotation=90;" parent="1" vertex="1">
          <mxGeometry x="136.25" y="683.75" width="35" height="117.5" as="geometry" />
        </mxCell>
        <mxCell id="t4TClTuSQzGhTtpf5ES--53" value="User2 Channel" style="text;html=1;align=center;verticalAlign=middle;whiteSpace=wrap;rounded=0;" parent="1" vertex="1">
          <mxGeometry x="100" y="727.5" width="83" height="30" as="geometry" />
        </mxCell>
        <mxCell id="t4TClTuSQzGhTtpf5ES--56" style="edgeStyle=orthogonalEdgeStyle;rounded=0;orthogonalLoop=1;jettySize=auto;html=1;entryX=0;entryY=0.5;entryDx=0;entryDy=0;" parent="1" source="t4TClTuSQzGhTtpf5ES--54" target="t4TClTuSQzGhTtpf5ES--51" edge="1">
          <mxGeometry relative="1" as="geometry" />
        </mxCell>
        <mxCell id="t4TClTuSQzGhTtpf5ES--54" value="WS Publisher 1" style="rounded=0;whiteSpace=wrap;html=1;" parent="1" vertex="1">
          <mxGeometry x="-120" y="665" width="95" height="27.5" as="geometry" />
        </mxCell>
        <mxCell id="t4TClTuSQzGhTtpf5ES--55" value="WS Publisher 2" style="rounded=0;whiteSpace=wrap;html=1;" parent="1" vertex="1">
          <mxGeometry x="-118" y="730" width="100" height="25" as="geometry" />
        </mxCell>
        <mxCell id="t4TClTuSQzGhTtpf5ES--57" style="edgeStyle=orthogonalEdgeStyle;rounded=0;orthogonalLoop=1;jettySize=auto;html=1;entryX=0.5;entryY=1;entryDx=0;entryDy=0;entryPerimeter=0;" parent="1" source="t4TClTuSQzGhTtpf5ES--55" target="t4TClTuSQzGhTtpf5ES--52" edge="1">
          <mxGeometry relative="1" as="geometry" />
        </mxCell>
        <mxCell id="t4TClTuSQzGhTtpf5ES--63" value="" style="shape=flexArrow;endArrow=classic;html=1;rounded=0;" parent="1" edge="1">
          <mxGeometry width="50" height="50" relative="1" as="geometry">
            <mxPoint x="110" y="480" as="sourcePoint" />
            <mxPoint x="130" y="600" as="targetPoint" />
          </mxGeometry>
        </mxCell>
        <mxCell id="t4TClTuSQzGhTtpf5ES--64" value="Distributed Redis Cluster" style="text;html=1;align=center;verticalAlign=middle;whiteSpace=wrap;rounded=0;" parent="1" vertex="1">
          <mxGeometry x="60" y="620" width="60" height="30" as="geometry" />
        </mxCell>
      </root>
    </mxGraphModel>
  </diagram>
</mxfile>
